<svg width="468" height="123" viewBox="0 0 468 123" fill="none" xmlns="http://www.w3.org/2000/svg">
<path d="M6.5 122.26C2.92 122.26 0 119.316 0 115.707V6.81397C0 3.20439 2.92 0.260254 6.5 0.260254H113.5C117.08 0.260254 120 3.20439 120 6.81397V115.707C120 119.316 117.08 122.26 113.5 122.26H6.5Z" fill="black"/>
<path d="M132.933 122.01C129.162 122.01 126.087 119.09 126.087 115.51V6.5C126.087 2.92 129.162 0 132.933 0H460.627C464.398 0 467.473 2.92 467.473 6.5V115.51C467.473 119.09 464.398 122.01 460.627 122.01H132.933Z" fill="black"/>
<mask id="path-3-inside-1_213_3" fill="white">
<path d="M60 93.3306L103.2 78.8203V28.2603L60 44.8306V93.3306Z"/>
<path d="M60 93.3306L16 78.8203V28.2603L60 44.8306V93.3306Z"/>
</mask>
<path d="M59 44.8306V93.3306H61V44.8306H59ZM60 93.3306L59.3736 95.2299L60.0058 95.4384L60.6368 95.2265L60 93.3306ZM103.2 78.8203L103.837 80.7162L105.2 80.2583V78.8203H103.2ZM103.2 28.2603H105.2V25.351L102.484 26.3929L103.2 28.2603ZM60 44.8306L59.2951 46.7022L60.0065 46.9701L60.7163 46.6979L60 44.8306ZM16 78.8203H14V80.2666L15.3736 80.7196L16 78.8203ZM16 28.2603L16.7049 26.3886L14 25.3699V28.2603H16ZM60.6368 95.2265L103.837 80.7162L102.563 76.9243L59.3632 91.4347L60.6368 95.2265ZM105.2 78.8203V28.2603H101.2V78.8203H105.2ZM102.484 26.3929L59.2837 42.9632L60.7163 46.6979L103.916 30.1276L102.484 26.3929ZM60.6264 91.4312L16.6264 76.9209L15.3736 80.7196L59.3736 95.2299L60.6264 91.4312ZM18 78.8203V28.2603H14V78.8203H18ZM15.2951 30.1319L59.2951 46.7022L60.7049 42.9589L16.7049 26.3886L15.2951 30.1319Z" fill="#3EC281" mask="url(#path-3-inside-1_213_3)"/>
<path d="M155.736 104H146.52C146.216 104 145.992 103.936 145.848 103.808C145.72 103.664 145.656 103.44 145.656 103.136V87.584C145.656 87.28 145.72 87.064 145.848 86.936C145.992 86.792 146.216 86.72 146.52 86.72H154.176C155.744 86.72 156.904 87.024 157.656 87.632C158.408 88.224 158.784 89.144 158.784 90.392V91.544C158.784 92.216 158.664 92.768 158.424 93.2C158.2 93.616 157.848 93.928 157.368 94.136C158.392 94.232 159.152 94.584 159.648 95.192C160.144 95.8 160.392 96.688 160.392 97.856V100.064C160.392 101.408 160.008 102.4 159.24 103.04C158.488 103.68 157.32 104 155.736 104ZM151.056 90.8V93.392H153.096C153.4 93.392 153.624 93.312 153.768 93.152C153.928 92.992 154.008 92.752 154.008 92.432V91.76C154.008 91.44 153.928 91.2 153.768 91.04C153.624 90.88 153.4 90.8 153.096 90.8H151.056ZM151.056 97.088V99.92H154.176C154.48 99.92 154.704 99.84 154.848 99.68C155.008 99.52 155.088 99.28 155.088 98.96V98.024C155.088 97.704 155.008 97.472 154.848 97.328C154.704 97.168 154.48 97.088 154.176 97.088H151.056ZM179.607 99.464C179.607 100.2 179.495 100.872 179.271 101.48C179.063 102.072 178.679 102.584 178.119 103.016C177.575 103.432 176.815 103.76 175.839 104C174.879 104.24 173.655 104.36 172.167 104.36C170.679 104.36 169.447 104.24 168.471 104C167.495 103.76 166.727 103.432 166.167 103.016C165.623 102.584 165.239 102.072 165.015 101.48C164.807 100.872 164.703 100.2 164.703 99.464V91.28C164.703 90.544 164.807 89.88 165.015 89.288C165.239 88.68 165.623 88.16 166.167 87.728C166.727 87.296 167.495 86.96 168.471 86.72C169.447 86.48 170.679 86.36 172.167 86.36C173.655 86.36 174.879 86.48 175.839 86.72C176.815 86.96 177.575 87.296 178.119 87.728C178.679 88.16 179.063 88.68 179.271 89.288C179.495 89.88 179.607 90.544 179.607 91.28V99.464ZM170.151 98.6C170.151 98.92 170.271 99.192 170.511 99.416C170.751 99.624 171.303 99.728 172.167 99.728C173.031 99.728 173.583 99.624 173.823 99.416C174.063 99.192 174.183 98.92 174.183 98.6V92.144C174.183 91.84 174.063 91.584 173.823 91.376C173.583 91.152 173.031 91.04 172.167 91.04C171.303 91.04 170.751 91.152 170.511 91.376C170.271 91.584 170.151 91.84 170.151 92.144V98.6ZM199.222 99.464C199.222 100.2 199.11 100.872 198.886 101.48C198.678 102.072 198.294 102.584 197.734 103.016C197.19 103.432 196.43 103.76 195.454 104C194.494 104.24 193.27 104.36 191.782 104.36C190.294 104.36 189.062 104.24 188.086 104C187.11 103.76 186.342 103.432 185.782 103.016C185.238 102.584 184.854 102.072 184.63 101.48C184.422 100.872 184.318 100.2 184.318 99.464V91.28C184.318 90.544 184.422 89.88 184.63 89.288C184.854 88.68 185.238 88.16 185.782 87.728C186.342 87.296 187.11 86.96 188.086 86.72C189.062 86.48 190.294 86.36 191.782 86.36C193.27 86.36 194.494 86.48 195.454 86.72C196.43 86.96 197.19 87.296 197.734 87.728C198.294 88.16 198.678 88.68 198.886 89.288C199.11 89.88 199.222 90.544 199.222 91.28V99.464ZM189.766 98.6C189.766 98.92 189.886 99.192 190.126 99.416C190.366 99.624 190.918 99.728 191.782 99.728C192.646 99.728 193.198 99.624 193.438 99.416C193.678 99.192 193.798 98.92 193.798 98.6V92.144C193.798 91.84 193.678 91.584 193.438 91.376C193.198 91.152 192.646 91.04 191.782 91.04C190.918 91.04 190.366 91.152 190.126 91.376C189.886 91.584 189.766 91.84 189.766 92.144V98.6ZM208.781 104H205.061C204.757 104 204.533 103.936 204.389 103.808C204.261 103.664 204.197 103.44 204.197 103.136V87.584C204.197 87.28 204.261 87.064 204.389 86.936C204.533 86.792 204.757 86.72 205.061 86.72H208.781C209.085 86.72 209.301 86.792 209.429 86.936C209.573 87.064 209.645 87.28 209.645 87.584V93.104H210.605L213.077 87.512C213.189 87.224 213.341 87.024 213.533 86.912C213.725 86.784 213.973 86.72 214.277 86.72H217.973C218.245 86.72 218.429 86.792 218.525 86.936C218.621 87.064 218.613 87.256 218.501 87.512L216.053 93.104C216.949 93.152 217.661 93.472 218.189 94.064C218.733 94.64 219.005 95.408 219.005 96.368V103.136C219.005 103.44 218.933 103.664 218.789 103.808C218.661 103.936 218.445 104 218.141 104H214.445C214.141 104 213.917 103.936 213.773 103.808C213.645 103.664 213.581 103.44 213.581 103.136V98.456C213.581 98.2 213.517 98 213.389 97.856C213.261 97.712 213.069 97.64 212.813 97.64H209.645V103.136C209.645 103.44 209.573 103.664 209.429 103.808C209.301 103.936 209.085 104 208.781 104ZM232.04 104H224.456C224.152 104 223.928 103.936 223.784 103.808C223.656 103.664 223.592 103.44 223.592 103.136V100.328C223.592 100.024 223.656 99.808 223.784 99.68C223.928 99.536 224.152 99.464 224.456 99.464H230.912C231.12 99.464 231.272 99.4 231.368 99.272C231.48 99.128 231.536 98.96 231.536 98.768C231.536 98.496 231.48 98.296 231.368 98.168C231.272 98.04 231.12 97.968 230.912 97.952L227.312 97.448C226.192 97.288 225.288 96.92 224.6 96.344C223.928 95.768 223.592 94.808 223.592 93.464V90.944C223.592 89.584 224.032 88.544 224.912 87.824C225.792 87.088 227.008 86.72 228.56 86.72H235.28C235.584 86.72 235.8 86.792 235.928 86.936C236.072 87.064 236.144 87.28 236.144 87.584V90.44C236.144 90.744 236.072 90.968 235.928 91.112C235.8 91.24 235.584 91.304 235.28 91.304H229.688C229.48 91.304 229.32 91.376 229.208 91.52C229.096 91.648 229.04 91.816 229.04 92.024C229.04 92.232 229.096 92.408 229.208 92.552C229.32 92.696 229.48 92.776 229.688 92.792L233.264 93.272C234.384 93.432 235.288 93.8 235.976 94.376C236.664 94.952 237.008 95.912 237.008 97.256V99.776C237.008 101.136 236.56 102.184 235.664 102.92C234.784 103.64 233.576 104 232.04 104ZM255.01 91.76L253.882 95.408H257.65L256.522 91.76C256.458 91.616 256.386 91.512 256.306 91.448C256.242 91.384 256.162 91.352 256.066 91.352H255.466C255.37 91.352 255.282 91.384 255.202 91.448C255.138 91.512 255.074 91.616 255.01 91.76ZM253.642 103.136C253.642 103.44 253.57 103.664 253.426 103.808C253.298 103.936 253.082 104 252.778 104H249.25C248.946 104 248.722 103.936 248.578 103.808C248.45 103.664 248.386 103.44 248.386 103.136V96.8C248.386 96.32 248.458 95.768 248.602 95.144C248.762 94.52 249.002 93.792 249.322 92.96L251.41 87.512C251.506 87.24 251.65 87.04 251.842 86.912C252.05 86.784 252.314 86.72 252.634 86.72H259.09C259.394 86.72 259.642 86.784 259.834 86.912C260.042 87.04 260.194 87.24 260.29 87.512L262.378 92.96C262.698 93.792 262.93 94.52 263.074 95.144C263.234 95.768 263.314 96.32 263.314 96.8V103.136C263.314 103.44 263.242 103.664 263.098 103.808C262.97 103.936 262.754 104 262.45 104H258.826C258.506 104 258.266 103.936 258.106 103.808C257.962 103.664 257.89 103.44 257.89 103.136V99.776H253.642V103.136ZM272.782 104H269.062C268.758 104 268.534 103.936 268.39 103.808C268.262 103.664 268.198 103.44 268.198 103.136V87.584C268.198 87.28 268.262 87.064 268.39 86.936C268.534 86.792 268.758 86.72 269.062 86.72H276.406C278.582 86.72 280.07 87.152 280.87 88.016C281.67 88.88 282.07 90.008 282.07 91.4V94.472C282.07 95.864 281.67 96.992 280.87 97.856C280.07 98.72 278.582 99.152 276.406 99.152H273.646V103.136C273.646 103.44 273.574 103.664 273.43 103.808C273.302 103.936 273.086 104 272.782 104ZM273.598 91.208V94.832H275.758C276.222 94.832 276.526 94.712 276.67 94.472C276.814 94.232 276.886 93.96 276.886 93.656V92.384C276.886 92.08 276.814 91.808 276.67 91.568C276.526 91.328 276.222 91.208 275.758 91.208H273.598ZM286.957 104C286.653 104 286.429 103.936 286.285 103.808C286.157 103.664 286.093 103.44 286.093 103.136V100.28C286.093 99.976 286.157 99.76 286.285 99.632C286.429 99.488 286.653 99.416 286.957 99.416H289.333V91.352H286.957C286.653 91.352 286.429 91.288 286.285 91.16C286.157 91.016 286.093 90.792 286.093 90.488V87.584C286.093 87.28 286.157 87.064 286.285 86.936C286.429 86.792 286.653 86.72 286.957 86.72H297.181C297.485 86.72 297.701 86.792 297.829 86.936C297.973 87.064 298.045 87.28 298.045 87.584V90.488C298.045 90.792 297.973 91.016 297.829 91.16C297.701 91.288 297.485 91.352 297.181 91.352H294.853V99.416H297.181C297.485 99.416 297.701 99.488 297.829 99.632C297.973 99.76 298.045 99.976 298.045 100.28V103.136C298.045 103.44 297.973 103.664 297.829 103.808C297.701 103.936 297.485 104 297.181 104H286.957Z" fill="#3EC281"/>
<path d="M189.12 75H148.4C147.387 75 146.64 74.7867 146.16 74.36C145.733 73.88 145.52 73.1333 145.52 72.12V20.28C145.52 19.2667 145.733 18.5467 146.16 18.12C146.64 17.64 147.387 17.4 148.4 17.4H160.8C161.813 17.4 162.533 17.64 162.96 18.12C163.44 18.5467 163.68 19.2667 163.68 20.28V59.88H174.64V46.92C174.64 45.9067 174.853 45.1867 175.28 44.76C175.76 44.28 176.507 44.04 177.52 44.04H189.12C190.133 44.04 190.853 44.28 191.28 44.76C191.76 45.1867 192 45.9067 192 46.92V72.12C192 73.1333 191.76 73.88 191.28 74.36C190.853 74.7867 190.133 75 189.12 75ZM256.345 59.88C256.345 62.3333 255.972 64.5733 255.225 66.6C254.532 68.5733 253.252 70.28 251.385 71.72C249.572 73.1067 247.038 74.2 243.785 75C240.585 75.8 236.505 76.2 231.545 76.2C226.585 76.2 222.478 75.8 219.225 75C215.972 74.2 213.412 73.1067 211.545 71.72C209.732 70.28 208.452 68.5733 207.705 66.6C207.012 64.5733 206.665 62.3333 206.665 59.88V32.6C206.665 30.1467 207.012 27.9333 207.705 25.96C208.452 23.9333 209.732 22.2 211.545 20.76C213.412 19.32 215.972 18.2 219.225 17.4C222.478 16.6 226.585 16.2 231.545 16.2C236.505 16.2 240.585 16.6 243.785 17.4C247.038 18.2 249.572 19.32 251.385 20.76C253.252 22.2 254.532 23.9333 255.225 25.96C255.972 27.9333 256.345 30.1467 256.345 32.6V59.88ZM224.825 57C224.825 58.0667 225.225 58.9733 226.025 59.72C226.825 60.4133 228.665 60.76 231.545 60.76C234.425 60.76 236.265 60.4133 237.065 59.72C237.865 58.9733 238.265 58.0667 238.265 57V35.48C238.265 34.4667 237.865 33.6133 237.065 32.92C236.265 32.1733 234.425 31.8 231.545 31.8C228.665 31.8 226.825 32.1733 226.025 32.92C225.225 33.6133 224.825 34.4667 224.825 35.48V57ZM321.729 59.88C321.729 62.3333 321.356 64.5733 320.609 66.6C319.916 68.5733 318.636 70.28 316.769 71.72C314.956 73.1067 312.423 74.2 309.169 75C305.969 75.8 301.889 76.2 296.929 76.2C291.969 76.2 287.863 75.8 284.609 75C281.356 74.2 278.796 73.1067 276.929 71.72C275.116 70.28 273.836 68.5733 273.089 66.6C272.396 64.5733 272.049 62.3333 272.049 59.88V32.6C272.049 30.1467 272.396 27.9333 273.089 25.96C273.836 23.9333 275.116 22.2 276.929 20.76C278.796 19.32 281.356 18.2 284.609 17.4C287.863 16.6 291.969 16.2 296.929 16.2C301.889 16.2 305.969 16.6 309.169 17.4C312.423 18.2 314.956 19.32 316.769 20.76C318.636 22.2 319.916 23.9333 320.609 25.96C321.356 27.9333 321.729 30.1467 321.729 32.6V59.88ZM290.209 57C290.209 58.0667 290.609 58.9733 291.409 59.72C292.209 60.4133 294.049 60.76 296.929 60.76C299.809 60.76 301.649 60.4133 302.449 59.72C303.249 58.9733 303.649 58.0667 303.649 57V35.48C303.649 34.4667 303.249 33.6133 302.449 32.92C301.649 32.1733 299.809 31.8 296.929 31.8C294.049 31.8 292.209 32.1733 291.409 32.92C290.609 33.6133 290.209 34.4667 290.209 35.48V57ZM353.594 75H341.194C340.18 75 339.434 74.7867 338.954 74.36C338.527 73.88 338.314 73.1333 338.314 72.12V20.28C338.314 19.2667 338.527 18.5467 338.954 18.12C339.434 17.64 340.18 17.4 341.194 17.4H353.594C354.607 17.4 355.327 17.64 355.754 18.12C356.234 18.5467 356.474 19.2667 356.474 20.28V38.68H359.674L367.914 20.04C368.287 19.08 368.794 18.4133 369.434 18.04C370.074 17.6133 370.9 17.4 371.914 17.4H384.234C385.14 17.4 385.754 17.64 386.074 18.12C386.394 18.5467 386.367 19.1867 385.994 20.04L377.834 38.68C380.82 38.84 383.194 39.9067 384.954 41.88C386.767 43.8 387.674 46.36 387.674 49.56V72.12C387.674 73.1333 387.434 73.88 386.954 74.36C386.527 74.7867 385.807 75 384.794 75H372.474C371.46 75 370.714 74.7867 370.234 74.36C369.807 73.88 369.594 73.1333 369.594 72.12V56.52C369.594 55.6667 369.38 55 368.954 54.52C368.527 54.04 367.887 53.8 367.034 53.8H356.474V72.12C356.474 73.1333 356.234 73.88 355.754 74.36C355.327 74.7867 354.607 75 353.594 75ZM432.039 75H419.079C418.065 75 417.319 74.7867 416.839 74.36C416.412 73.88 416.199 73.1333 416.199 72.12V61.88L403.959 45.48C402.732 43.8267 401.905 42.3867 401.479 41.16C401.105 39.9333 400.919 38.0933 400.919 35.64V20.28C400.919 19.2667 401.132 18.5467 401.559 18.12C402.039 17.64 402.785 17.4 403.799 17.4H416.119C417.132 17.4 417.852 17.64 418.279 18.12C418.759 18.5467 418.999 19.2667 418.999 20.28V33.4C418.999 33.9333 419.025 34.4933 419.079 35.08C419.132 35.6667 419.345 36.2267 419.719 36.76L423.399 42.52C423.665 43 423.932 43.3467 424.199 43.56C424.519 43.7733 424.892 43.88 425.319 43.88H426.119C426.545 43.88 426.892 43.7733 427.159 43.56C427.479 43.3467 427.772 43 428.039 42.52L431.719 36.76C432.092 36.2267 432.305 35.6667 432.359 35.08C432.412 34.4933 432.439 33.9333 432.439 33.4V20.28C432.439 19.2667 432.652 18.5467 433.079 18.12C433.559 17.64 434.305 17.4 435.319 17.4H447.239C448.252 17.4 448.972 17.64 449.399 18.12C449.879 18.5467 450.119 19.2667 450.119 20.28V35.64C450.119 38.0933 449.905 39.9333 449.479 41.16C449.052 42.3867 448.252 43.8267 447.079 45.48L434.919 61.96V72.12C434.919 73.1333 434.679 73.88 434.199 74.36C433.772 74.7867 433.052 75 432.039 75Z" fill="white"/>
</svg>
