<svg width="315" height="99" viewBox="0 0 315 99" fill="none" xmlns="http://www.w3.org/2000/svg">
<path d="M15.736 93H6.52C6.216 93 5.992 92.936 5.848 92.808C5.72 92.664 5.656 92.44 5.656 92.136V76.584C5.656 76.28 5.72 76.064 5.848 75.936C5.992 75.792 6.216 75.72 6.52 75.72H14.176C15.744 75.72 16.904 76.024 17.656 76.632C18.408 77.224 18.784 78.144 18.784 79.392V80.544C18.784 81.216 18.664 81.768 18.424 82.2C18.2 82.616 17.848 82.928 17.368 83.136C18.392 83.232 19.152 83.584 19.648 84.192C20.144 84.8 20.392 85.688 20.392 86.856V89.064C20.392 90.408 20.008 91.4 19.24 92.04C18.488 92.68 17.32 93 15.736 93ZM11.056 79.8V82.392H13.096C13.4 82.392 13.624 82.312 13.768 82.152C13.928 81.992 14.008 81.752 14.008 81.432V80.76C14.008 80.44 13.928 80.2 13.768 80.04C13.624 79.88 13.4 79.8 13.096 79.8H11.056ZM11.056 86.088V88.92H14.176C14.48 88.92 14.704 88.84 14.848 88.68C15.008 88.52 15.088 88.28 15.088 87.96V87.024C15.088 86.704 15.008 86.472 14.848 86.328C14.704 86.168 14.48 86.088 14.176 86.088H11.056ZM39.6066 88.464C39.6066 89.2 39.4946 89.872 39.2706 90.48C39.0626 91.072 38.6786 91.584 38.1186 92.016C37.5746 92.432 36.8146 92.76 35.8386 93C34.8786 93.24 33.6546 93.36 32.1666 93.36C30.6786 93.36 29.4466 93.24 28.4706 93C27.4946 92.76 26.7266 92.432 26.1666 92.016C25.6226 91.584 25.2386 91.072 25.0146 90.48C24.8066 89.872 24.7026 89.2 24.7026 88.464V80.28C24.7026 79.544 24.8066 78.88 25.0146 78.288C25.2386 77.68 25.6226 77.16 26.1666 76.728C26.7266 76.296 27.4946 75.96 28.4706 75.72C29.4466 75.48 30.6786 75.36 32.1666 75.36C33.6546 75.36 34.8786 75.48 35.8386 75.72C36.8146 75.96 37.5746 76.296 38.1186 76.728C38.6786 77.16 39.0626 77.68 39.2706 78.288C39.4946 78.88 39.6066 79.544 39.6066 80.28V88.464ZM30.1506 87.6C30.1506 87.92 30.2706 88.192 30.5106 88.416C30.7506 88.624 31.3026 88.728 32.1666 88.728C33.0306 88.728 33.5826 88.624 33.8226 88.416C34.0626 88.192 34.1826 87.92 34.1826 87.6V81.144C34.1826 80.84 34.0626 80.584 33.8226 80.376C33.5826 80.152 33.0306 80.04 32.1666 80.04C31.3026 80.04 30.7506 80.152 30.5106 80.376C30.2706 80.584 30.1506 80.84 30.1506 81.144V87.6ZM59.2219 88.464C59.2219 89.2 59.1099 89.872 58.8859 90.48C58.6779 91.072 58.2939 91.584 57.7339 92.016C57.1899 92.432 56.4299 92.76 55.4539 93C54.4939 93.24 53.2699 93.36 51.7819 93.36C50.2939 93.36 49.0619 93.24 48.0859 93C47.1099 92.76 46.3419 92.432 45.7819 92.016C45.2379 91.584 44.8539 91.072 44.6299 90.48C44.4219 89.872 44.3179 89.2 44.3179 88.464V80.28C44.3179 79.544 44.4219 78.88 44.6299 78.288C44.8539 77.68 45.2379 77.16 45.7819 76.728C46.3419 76.296 47.1099 75.96 48.0859 75.72C49.0619 75.48 50.2939 75.36 51.7819 75.36C53.2699 75.36 54.4939 75.48 55.4539 75.72C56.4299 75.96 57.1899 76.296 57.7339 76.728C58.2939 77.16 58.6779 77.68 58.8859 78.288C59.1099 78.88 59.2219 79.544 59.2219 80.28V88.464ZM49.7659 87.6C49.7659 87.92 49.8859 88.192 50.1259 88.416C50.3659 88.624 50.9179 88.728 51.7819 88.728C52.6459 88.728 53.1979 88.624 53.4379 88.416C53.6779 88.192 53.7979 87.92 53.7979 87.6V81.144C53.7979 80.84 53.6779 80.584 53.4379 80.376C53.1979 80.152 52.6459 80.04 51.7819 80.04C50.9179 80.04 50.3659 80.152 50.1259 80.376C49.8859 80.584 49.7659 80.84 49.7659 81.144V87.6ZM68.7812 93H65.0612C64.7572 93 64.5332 92.936 64.3892 92.808C64.2612 92.664 64.1972 92.44 64.1972 92.136V76.584C64.1972 76.28 64.2612 76.064 64.3892 75.936C64.5332 75.792 64.7572 75.72 65.0612 75.72H68.7812C69.0852 75.72 69.3012 75.792 69.4292 75.936C69.5732 76.064 69.6452 76.28 69.6452 76.584V82.104H70.6052L73.0772 76.512C73.1892 76.224 73.3412 76.024 73.5332 75.912C73.7252 75.784 73.9732 75.72 74.2772 75.72H77.9732C78.2452 75.72 78.4292 75.792 78.5252 75.936C78.6212 76.064 78.6132 76.256 78.5012 76.512L76.0532 82.104C76.9492 82.152 77.6612 82.472 78.1892 83.064C78.7332 83.64 79.0052 84.408 79.0052 85.368V92.136C79.0052 92.44 78.9332 92.664 78.7892 92.808C78.6612 92.936 78.4452 93 78.1412 93H74.4452C74.1412 93 73.9172 92.936 73.7732 92.808C73.6452 92.664 73.5812 92.44 73.5812 92.136V87.456C73.5812 87.2 73.5172 87 73.3892 86.856C73.2612 86.712 73.0692 86.64 72.8132 86.64H69.6452V92.136C69.6452 92.44 69.5732 92.664 69.4292 92.808C69.3012 92.936 69.0852 93 68.7812 93ZM92.0395 93H84.4555C84.1515 93 83.9275 92.936 83.7835 92.808C83.6555 92.664 83.5915 92.44 83.5915 92.136V89.328C83.5915 89.024 83.6555 88.808 83.7835 88.68C83.9275 88.536 84.1515 88.464 84.4555 88.464H90.9115C91.1195 88.464 91.2715 88.4 91.3675 88.272C91.4795 88.128 91.5355 87.96 91.5355 87.768C91.5355 87.496 91.4795 87.296 91.3675 87.168C91.2715 87.04 91.1195 86.968 90.9115 86.952L87.3115 86.448C86.1915 86.288 85.2875 85.92 84.5995 85.344C83.9275 84.768 83.5915 83.808 83.5915 82.464V79.944C83.5915 78.584 84.0315 77.544 84.9115 76.824C85.7915 76.088 87.0075 75.72 88.5595 75.72H95.2795C95.5835 75.72 95.7995 75.792 95.9275 75.936C96.0715 76.064 96.1435 76.28 96.1435 76.584V79.44C96.1435 79.744 96.0715 79.968 95.9275 80.112C95.7995 80.24 95.5835 80.304 95.2795 80.304H89.6875C89.4795 80.304 89.3195 80.376 89.2075 80.52C89.0955 80.648 89.0395 80.816 89.0395 81.024C89.0395 81.232 89.0955 81.408 89.2075 81.552C89.3195 81.696 89.4795 81.776 89.6875 81.792L93.2635 82.272C94.3835 82.432 95.2875 82.8 95.9755 83.376C96.6635 83.952 97.0075 84.912 97.0075 86.256V88.776C97.0075 90.136 96.5595 91.184 95.6635 91.92C94.7835 92.64 93.5755 93 92.0395 93ZM115.01 80.76L113.882 84.408H117.65L116.522 80.76C116.458 80.616 116.386 80.512 116.306 80.448C116.242 80.384 116.162 80.352 116.066 80.352H115.466C115.37 80.352 115.282 80.384 115.202 80.448C115.138 80.512 115.074 80.616 115.01 80.76ZM113.642 92.136C113.642 92.44 113.57 92.664 113.426 92.808C113.298 92.936 113.082 93 112.778 93H109.25C108.946 93 108.722 92.936 108.578 92.808C108.45 92.664 108.386 92.44 108.386 92.136V85.8C108.386 85.32 108.458 84.768 108.602 84.144C108.762 83.52 109.002 82.792 109.322 81.96L111.41 76.512C111.506 76.24 111.65 76.04 111.842 75.912C112.05 75.784 112.314 75.72 112.634 75.72H119.09C119.394 75.72 119.642 75.784 119.834 75.912C120.042 76.04 120.194 76.24 120.29 76.512L122.378 81.96C122.698 82.792 122.93 83.52 123.074 84.144C123.234 84.768 123.314 85.32 123.314 85.8V92.136C123.314 92.44 123.242 92.664 123.098 92.808C122.97 92.936 122.754 93 122.45 93H118.826C118.506 93 118.266 92.936 118.106 92.808C117.962 92.664 117.89 92.44 117.89 92.136V88.776H113.642V92.136ZM132.782 93H129.062C128.758 93 128.534 92.936 128.39 92.808C128.262 92.664 128.198 92.44 128.198 92.136V76.584C128.198 76.28 128.262 76.064 128.39 75.936C128.534 75.792 128.758 75.72 129.062 75.72H136.406C138.582 75.72 140.07 76.152 140.87 77.016C141.67 77.88 142.07 79.008 142.07 80.4V83.472C142.07 84.864 141.67 85.992 140.87 86.856C140.07 87.72 138.582 88.152 136.406 88.152H133.646V92.136C133.646 92.44 133.574 92.664 133.43 92.808C133.302 92.936 133.086 93 132.782 93ZM133.598 80.208V83.832H135.758C136.222 83.832 136.526 83.712 136.67 83.472C136.814 83.232 136.886 82.96 136.886 82.656V81.384C136.886 81.08 136.814 80.808 136.67 80.568C136.526 80.328 136.222 80.208 135.758 80.208H133.598ZM146.957 93C146.653 93 146.429 92.936 146.285 92.808C146.157 92.664 146.093 92.44 146.093 92.136V89.28C146.093 88.976 146.157 88.76 146.285 88.632C146.429 88.488 146.653 88.416 146.957 88.416H149.333V80.352H146.957C146.653 80.352 146.429 80.288 146.285 80.16C146.157 80.016 146.093 79.792 146.093 79.488V76.584C146.093 76.28 146.157 76.064 146.285 75.936C146.429 75.792 146.653 75.72 146.957 75.72H157.181C157.485 75.72 157.701 75.792 157.829 75.936C157.973 76.064 158.045 76.28 158.045 76.584V79.488C158.045 79.792 157.973 80.016 157.829 80.16C157.701 80.288 157.485 80.352 157.181 80.352H154.853V88.416H157.181C157.485 88.416 157.701 88.488 157.829 88.632C157.973 88.76 158.045 88.976 158.045 89.28V92.136C158.045 92.44 157.973 92.664 157.829 92.808C157.701 92.936 157.485 93 157.181 93H146.957Z" fill="#3EC281"/>
<path d="M49.12 64H8.4C7.38667 64 6.64 63.7867 6.16 63.36C5.73333 62.88 5.52 62.1333 5.52 61.12V9.28C5.52 8.26667 5.73333 7.54667 6.16 7.12C6.64 6.64 7.38667 6.4 8.4 6.4H20.8C21.8133 6.4 22.5333 6.64 22.96 7.12C23.44 7.54667 23.68 8.26667 23.68 9.28V48.88H34.64V35.92C34.64 34.9067 34.8533 34.1867 35.28 33.76C35.76 33.28 36.5067 33.04 37.52 33.04H49.12C50.1333 33.04 50.8533 33.28 51.28 33.76C51.76 34.1867 52 34.9067 52 35.92V61.12C52 62.1333 51.76 62.88 51.28 63.36C50.8533 63.7867 50.1333 64 49.12 64ZM213.594 64H201.194C200.18 64 199.434 63.7867 198.954 63.36C198.527 62.88 198.314 62.1333 198.314 61.12V9.28C198.314 8.26667 198.527 7.54667 198.954 7.12C199.434 6.64 200.18 6.4 201.194 6.4H213.594C214.607 6.4 215.327 6.64 215.754 7.12C216.234 7.54667 216.474 8.26667 216.474 9.28V27.68H219.674L227.914 9.04C228.287 8.08 228.794 7.41333 229.434 7.04C230.074 6.61333 230.9 6.4 231.914 6.4H244.234C245.14 6.4 245.754 6.64 246.074 7.12C246.394 7.54667 246.367 8.18667 245.994 9.04L237.834 27.68C240.82 27.84 243.194 28.9067 244.954 30.88C246.767 32.8 247.674 35.36 247.674 38.56V61.12C247.674 62.1333 247.434 62.88 246.954 63.36C246.527 63.7867 245.807 64 244.794 64H232.474C231.46 64 230.714 63.7867 230.234 63.36C229.807 62.88 229.594 62.1333 229.594 61.12V45.52C229.594 44.6667 229.38 44 228.954 43.52C228.527 43.04 227.887 42.8 227.034 42.8H216.474V61.12C216.474 62.1333 216.234 62.88 215.754 63.36C215.327 63.7867 214.607 64 213.594 64ZM292.039 64H279.079C278.065 64 277.319 63.7867 276.839 63.36C276.412 62.88 276.199 62.1333 276.199 61.12V50.88L263.959 34.48C262.732 32.8267 261.905 31.3867 261.479 30.16C261.105 28.9333 260.919 27.0933 260.919 24.64V9.28C260.919 8.26667 261.132 7.54667 261.559 7.12C262.039 6.64 262.785 6.4 263.799 6.4H276.119C277.132 6.4 277.852 6.64 278.279 7.12C278.759 7.54667 278.999 8.26667 278.999 9.28V22.4C278.999 22.9333 279.025 23.4933 279.079 24.08C279.132 24.6667 279.345 25.2267 279.719 25.76L283.399 31.52C283.665 32 283.932 32.3467 284.199 32.56C284.519 32.7733 284.892 32.88 285.319 32.88H286.119C286.545 32.88 286.892 32.7733 287.159 32.56C287.479 32.3467 287.772 32 288.039 31.52L291.719 25.76C292.092 25.2267 292.305 24.6667 292.359 24.08C292.412 23.4933 292.439 22.9333 292.439 22.4V9.28C292.439 8.26667 292.652 7.54667 293.079 7.12C293.559 6.64 294.305 6.4 295.319 6.4H307.239C308.252 6.4 308.972 6.64 309.399 7.12C309.879 7.54667 310.119 8.26667 310.119 9.28V24.64C310.119 27.0933 309.905 28.9333 309.479 30.16C309.052 31.3867 308.252 32.8267 307.079 34.48L294.919 50.96V61.12C294.919 62.1333 294.679 62.88 294.199 63.36C293.772 63.7867 293.052 64 292.039 64Z" fill="white"/>
<path d="M116.345 48.88C116.345 51.3333 115.972 53.5733 115.225 55.6C114.532 57.5733 113.252 59.28 111.385 60.72C109.572 62.1067 107.038 63.2 103.785 64C100.585 64.8 96.505 65.2 91.545 65.2C86.585 65.2 82.4783 64.8 79.225 64C75.9717 63.2 73.4117 62.1067 71.545 60.72C69.7317 59.28 68.4517 57.5733 67.705 55.6C67.0117 53.5733 66.665 51.3333 66.665 48.88V21.6C66.665 19.1467 67.0117 16.9333 67.705 14.96C68.4517 12.9333 69.7317 11.2 71.545 9.76C73.4117 8.32 75.9717 7.2 79.225 6.4C82.4783 5.6 86.585 5.2 91.545 5.2C96.505 5.2 100.585 5.6 103.785 6.4C107.038 7.2 109.572 8.32 111.385 9.76C113.252 11.2 114.532 12.9333 115.225 14.96C115.972 16.9333 116.345 19.1467 116.345 21.6V48.88ZM84.825 46C84.825 47.0667 85.225 47.9733 86.025 48.72C86.825 49.4133 88.665 49.76 91.545 49.76C94.425 49.76 96.265 49.4133 97.065 48.72C97.865 47.9733 98.265 47.0667 98.265 46V24.48C98.265 23.4667 97.865 22.6133 97.065 21.92C96.265 21.1733 94.425 20.8 91.545 20.8C88.665 20.8 86.825 21.1733 86.025 21.92C85.225 22.6133 84.825 23.4667 84.825 24.48V46ZM181.729 48.88C181.729 51.3333 181.356 53.5733 180.609 55.6C179.916 57.5733 178.636 59.28 176.769 60.72C174.956 62.1067 172.423 63.2 169.169 64C165.969 64.8 161.889 65.2 156.929 65.2C151.969 65.2 147.863 64.8 144.609 64C141.356 63.2 138.796 62.1067 136.929 60.72C135.116 59.28 133.836 57.5733 133.089 55.6C132.396 53.5733 132.049 51.3333 132.049 48.88V21.6C132.049 19.1467 132.396 16.9333 133.089 14.96C133.836 12.9333 135.116 11.2 136.929 9.76C138.796 8.32 141.356 7.2 144.609 6.4C147.863 5.6 151.969 5.2 156.929 5.2C161.889 5.2 165.969 5.6 169.169 6.4C172.423 7.2 174.956 8.32 176.769 9.76C178.636 11.2 179.916 12.9333 180.609 14.96C181.356 16.9333 181.729 19.1467 181.729 21.6V48.88ZM150.209 46C150.209 47.0667 150.609 47.9733 151.409 48.72C152.209 49.4133 154.049 49.76 156.929 49.76C159.809 49.76 161.649 49.4133 162.449 48.72C163.249 47.9733 163.649 47.0667 163.649 46V24.48C163.649 23.4667 163.249 22.6133 162.449 21.92C161.649 21.1733 159.809 20.8 156.929 20.8C154.049 20.8 152.209 21.1733 151.409 21.92C150.609 22.6133 150.209 23.4667 150.209 24.48V46Z" fill="#3EC281"/>
</svg>
